STARTFONT 2.1
FONT -Pixel Font Studio-Demo Pixel-Regular-R-Normal-Sans Serif-54-540-75-75-P-360-ISO10646-1
SIZE 54 75 75
FONTBOUNDINGBOX 54 54 0 -6
STARTPROPERTIES 22
FOUNDRY "Pixel Font Studio"
FAMILY_NAME "Demo Pixel"
WEIGHT_NAME "Regular"
SLANT "R"
SETWIDTH_NAME "Normal"
ADD_STYLE_NAME "Sans Serif"
PIXEL_SIZE 54
POINT_SIZE 540
RESOLUTION_X 75
RESOLUTION_Y 75
SPACING "P"
AVERAGE_WIDTH 360
CHARSET_REGISTRY "ISO10646"
CHARSET_ENCODING "1"
DEFAULT_CHAR -1
FONT_ASCENT 48
FONT_DESCENT 6
X_HEIGHT 30
CAP_HEIGHT 42
FONT_VERSION "1.0.0"
COPYRIGHT "Copyright (c) TakWolf"
LICENSE "This Font Software is licensed under the SIL Open Font License, Version 1.1."
ENDPROPERTIES
CHARS 6
STARTCHAR .notdef
ENCODING -1
SWIDTH 667 0
DWIDTH 36 0
BBX 36 54 -6 30
BITMAP
FFFFFFFFF0
FFFFFFFFF0
FFFFFFFFF0
FFFFFFFFF0
FFFFFFFFF0
FFFFFFFFF0
FC000003F0
FC000003F0
FC000003F0
FC000003F0
FC000003F0
FC000003F0
FC000003F0
FC000003F0
FC000003F0
FC000003F0
FC000003F0
FC000003F0
FC000003F0
FC000003F0
FC000003F0
FC000003F0
FC000003F0
FC000003F0
FC000003F0
FC000003F0
FC000003F0
FC000003F0
FC000003F0
FC000003F0
FC000003F0
FC000003F0
FC000003F0
FC000003F0
FC000003F0
FC000003F0
FC000003F0
FC000003F0
FC000003F0
FC000003F0
FC000003F0
FC000003F0
FC000003F0
FC000003F0
FC000003F0
FC000003F0
FC000003F0
FC000003F0
FFFFFFFFF0
FFFFFFFFF0
FFFFFFFFF0
FFFFFFFFF0
FFFFFFFFF0
FFFFFFFFF0
ENDCHAR
STARTCHAR uni0041
ENCODING 65
SWIDTH 667 0
DWIDTH 36 0
BBX 36 54 -6 30
BITMAP
0000000000
0000000000
0000000000
0000000000
0000000000
0000000000
03FFFF0000
03FFFF0000
03FFFF0000
03FFFF0000
03FFFF0000
03FFFF0000
FC0000FC00
FC0000FC00
FC0000FC00
FC0000FC00
FC0000FC00
FC0000FC00
FC0000FC00
FC0000FC00
FC0000FC00
FC0000FC00
FC0000FC00
FC0000FC00
FC0000FC00
FC0000FC00
FC0000FC00
FC0000FC00
FC0000FC00
FC0000FC00
FFFFFFFC00
FFFFFFFC00
FFFFFFFC00
FFFFFFFC00
FFFFFFFC00
FFFFFFFC00
FC0000FC00
FC0000FC00
FC0000FC00
FC0000FC00
FC0000FC00
FC0000FC00
FC0000FC00
FC0000FC00
FC0000FC00
FC0000FC00
FC0000FC00
FC0000FC00
0000000000
0000000000
0000000000
0000000000
0000000000
0000000000
ENDCHAR
STARTCHAR uni0042
ENCODING 66
SWIDTH 667 0
DWIDTH 36 0
BBX 36 54 -6 30
BITMAP
0000000000
0000000000
0000000000
0000000000
0000000000
0000000000
FFFFFF0000
FFFFFF0000
FFFFFF0000
FFFFFF0000
FFFFFF0000
FFFFFF0000
FC0000FC00
FC0000FC00
FC0000FC00
FC0000FC00
FC0000FC00
FC0000FC00
FC0000FC00
FC0000FC00
FC0000FC00
FC0000FC00
FC0000FC00
FC0000FC00
FFFFFF0000
FFFFFF0000
FFFFFF0000
FFFFFF0000
FFFFFF0000
FFFFFF0000
FC0000FC00
FC0000FC00
FC0000FC00
FC0000FC00
FC0000FC00
FC0000FC00
FC0000FC00
FC0000FC00
FC0000FC00
FC0000FC00
FC0000FC00
FC0000FC00
FFFFFF0000
FFFFFF0000
FFFFFF0000
FFFFFF0000
FFFFFF0000
FFFFFF0000
0000000000
0000000000
0000000000
0000000000
0000000000
0000000000
ENDCHAR
STARTCHAR uni0043
ENCODING 67
SWIDTH 667 0
DWIDTH 36 0
BBX 36 54 -6 30
BITMAP
0000000000
0000000000
0000000000
0000000000
0000000000
0000000000
03FFFF0000
03FFFF0000
03FFFF0000
03FFFF0000
03FFFF0000
03FFFF0000
FC0000FC00
FC0000FC00
FC0000FC00
FC0000FC00
FC0000FC00
FC0000FC00
FC00000000
FC00000000
FC00000000
FC00000000
FC00000000
FC00000000
FC00000000
FC00000000
FC00000000
FC00000000
FC00000000
FC00000000
FC00000000
FC00000000
FC00000000
FC00000000
FC00000000
FC00000000
FC0000FC00
FC0000FC00
FC0000FC00
FC0000FC00
FC0000FC00
FC0000FC00
03FFFF0000
03FFFF0000
03FFFF0000
03FFFF0000
03FFFF0000
03FFFF0000
0000000000
0000000000
0000000000
0000000000
0000000000
0000000000
ENDCHAR
STARTCHAR uni0044
ENCODING 68
SWIDTH 667 0
DWIDTH 36 0
BBX 36 54 -6 30
BITMAP
0000000000
0000000000
0000000000
0000000000
0000000000
0000000000
FFFFFF0000
FFFFFF0000
FFFFFF0000
FFFFFF0000
FFFFFF0000
FFFFFF0000
FC0000FC00
FC0000FC00
FC0000FC00
FC0000FC00
FC0000FC00
FC0000FC00
FC0000FC00
FC0000FC00
FC0000FC00
FC0000FC00
FC0000FC00
FC0000FC00
FC0000FC00
FC0000FC00
FC0000FC00
FC0000FC00
FC0000FC00
FC0000FC00
FC0000FC00
FC0000FC00
FC0000FC00
FC0000FC00
FC0000FC00
FC0000FC00
FC0000FC00
FC0000FC00
FC0000FC00
FC0000FC00
FC0000FC00
FC0000FC00
FFFFFF0000
FFFFFF0000
FFFFFF0000
FFFFFF0000
FFFFFF0000
FFFFFF0000
0000000000
0000000000
0000000000
0000000000
0000000000
0000000000
ENDCHAR
STARTCHAR uni0045
ENCODING 69
SWIDTH 667 0
DWIDTH 36 0
BBX 36 54 -6 30
BITMAP
0000000000
0000000000
0000000000
0000000000
0000000000
0000000000
FFFFFFFC00
FFFFFFFC00
FFFFFFFC00
FFFFFFFC00
FFFFFFFC00
FFFFFFFC00
FC00000000
FC00000000
FC00000000
FC00000000
FC00000000
FC00000000
FC00000000
FC00000000
FC00000000
FC00000000
FC00000000
FC00000000
FFFFFF0000
FFFFFF0000
FFFFFF0000
FFFFFF0000
FFFFFF0000
FFFFFF0000
FC00000000
FC00000000
FC00000000
FC00000000
FC00000000
FC00000000
FC00000000
FC00000000
FC00000000
FC00000000
FC00000000
FC00000000
FFFFFFFC00
FFFFFFFC00
FFFFFFFC00
FFFFFFFC00
FFFFFFFC00
FFFFFFFC00
0000000000
0000000000
0000000000
0000000000
0000000000
0000000000
ENDCHAR
ENDFONT
